<svg width="21" height="18" viewBox="0 0 21 18" fill="none" xmlns="http://www.w3.org/2000/svg">
<path d="M17.8223 10.3236C15.7843 9.34358 12.5053 8.71958 9.52234 8.71958C7.69434 8.71958 6.57134 5.55658 6.25834 3.48458L7.44034 1.47758C7.70535 1.02761 8.08322 0.654604 8.53659 0.395459C8.98997 0.136313 9.50313 0 10.0253 0C10.5475 0 11.0607 0.136313 11.5141 0.395459C11.9675 0.654604 12.3453 1.02761 12.6103 1.47758L17.8223 10.3236ZM19.4953 13.1626L19.6353 13.3986C19.9039 13.8543 20.0472 14.373 20.0506 14.9019C20.0541 15.4309 19.9176 15.9514 19.6551 16.4106C19.3925 16.8698 19.0132 17.2515 18.5556 17.5168C18.098 17.7822 17.5783 17.9218 17.0493 17.9216H3.00034C2.47144 17.9216 1.95193 17.7819 1.49446 17.5164C1.03699 17.251 0.657816 16.8694 0.395377 16.4102C0.132938 15.951 -0.00343979 15.4306 6.59214e-05 14.9017C0.00357163 14.3728 0.146836 13.8542 0.415339 13.3986L4.93234 5.73458C5.34934 8.49458 7.07634 10.7196 9.52234 10.7196C12.2693 10.7196 16.2323 11.2556 19.4953 13.1626Z" fill="white"/>
</svg>
