<svg width="24" height="24" viewBox="0 0 24 24" fill="none" xmlns="http://www.w3.org/2000/svg">
<g clip-path="url(#clip0_2_726)">
<path d="M22.0024 5.80082C21.2508 6.12691 20.4559 6.34248 19.6424 6.44082C20.5006 5.92814 21.1437 5.1216 21.4524 4.17082C20.646 4.65088 19.7632 4.98912 18.8424 5.17082C18.227 4.50339 17.4074 4.05912 16.5123 3.90767C15.6171 3.75623 14.697 3.90618 13.8962 4.33401C13.0955 4.76184 12.4594 5.44335 12.0877 6.27166C11.716 7.09996 11.6297 8.02821 11.8424 8.91082C10.2119 8.82835 8.61688 8.40377 7.1611 7.66468C5.70531 6.92559 4.42129 5.88851 3.39244 4.62082C3.03158 5.25099 2.84196 5.96464 2.84244 6.69082C2.84116 7.3652 3.00666 8.02944 3.3242 8.62438C3.64173 9.21933 4.10146 9.72653 4.66244 10.1008C4.01042 10.0831 3.37233 9.90812 2.80244 9.59082V9.64082C2.80733 10.5857 3.13844 11.4999 3.73976 12.2288C4.34108 12.9577 5.1757 13.4565 6.10244 13.6408C5.7457 13.7494 5.37532 13.8066 5.00244 13.8108C4.74433 13.8078 4.48686 13.7844 4.23244 13.7408C4.49635 14.5536 5.00706 15.264 5.69352 15.773C6.37997 16.282 7.20802 16.5644 8.06244 16.5808C6.61965 17.7161 4.83833 18.3357 3.00244 18.3408C2.66818 18.3419 2.33418 18.3219 2.00244 18.2808C3.87687 19.4911 6.06125 20.1335 8.29244 20.1308C9.83213 20.1468 11.3596 19.8558 12.7856 19.2749C14.2115 18.694 15.5075 17.8347 16.5976 16.7473C17.6878 15.6599 18.5504 14.3662 19.135 12.9417C19.7196 11.5172 20.0145 9.99055 20.0024 8.45082C20.0024 8.28082 20.0024 8.10082 20.0024 7.92082C20.7871 7.33563 21.4639 6.61825 22.0024 5.80082Z" fill="white"/>
</g>
<defs>
<clipPath id="clip0_2_726">
<rect width="23.9985" height="24" fill="white"/>
</clipPath>
</defs>
</svg>
