<svg width="49" height="15" viewBox="0 0 49 15" fill="none" xmlns="http://www.w3.org/2000/svg">
<path d="M1 6.36377C0.447715 6.36377 0 6.81148 0 7.36377C0 7.91605 0.447715 8.36377 1 8.36377V6.36377ZM48.7071 8.07088C49.0976 7.68035 49.0976 7.04719 48.7071 6.65666L42.3431 0.292702C41.9526 -0.0978227 41.3195 -0.0978227 40.9289 0.292702C40.5384 0.683226 40.5384 1.31639 40.9289 1.70692L46.5858 7.36377L40.9289 13.0206C40.5384 13.4111 40.5384 14.0443 40.9289 14.4348C41.3195 14.8254 41.9526 14.8254 42.3431 14.4348L48.7071 8.07088ZM1 8.36377H48V6.36377H1V8.36377Z" fill="white" fill-opacity="0.5"/>
</svg>
