<svg width="56" height="56" viewBox="0 0 56 56" fill="none" xmlns="http://www.w3.org/2000/svg">
<path d="M32.1068 30.8094C32.4517 31.1198 32.6592 31.5545 32.6837 32.0179C32.7082 32.4812 32.5477 32.9354 32.2374 33.2804L29.6451 36.1644H34.9558C35.2855 36.164 35.6086 36.2567 35.8879 36.4319C36.1672 36.6071 36.3913 36.8577 36.5344 37.1547C36.6776 37.4517 36.7339 37.7831 36.6969 38.1107C36.6599 38.4383 36.5312 38.7488 36.3254 39.0064L28.8308 48.4121C28.5371 48.7606 28.1191 48.9809 27.6656 49.026C27.2121 49.0711 26.7588 48.9375 26.4023 48.6536C26.0457 48.3697 25.814 47.958 25.7564 47.5058C25.6988 47.0537 25.8198 46.597 26.0938 46.2327L31.3251 39.6644H25.7181C25.38 39.6644 25.0492 39.5664 24.7656 39.3823C24.4821 39.1983 24.2579 38.936 24.1202 38.6273C23.9824 38.3185 23.9371 37.9765 23.9896 37.6426C24.0421 37.3086 24.1903 36.997 24.4161 36.7454L29.6334 30.9401C29.7872 30.7689 29.9731 30.6298 30.1807 30.5306C30.3882 30.4314 30.6133 30.3741 30.843 30.3619C31.0727 30.3498 31.3026 30.3831 31.5194 30.4599C31.7363 30.5366 31.9359 30.6554 32.1068 30.8094ZM30.3381 11.6877C37.7301 11.6877 41.9254 16.5807 42.5344 22.4911H42.7211C43.8511 22.4895 44.9702 22.7106 46.0148 23.1417C47.0593 23.5728 48.0086 24.2054 48.8086 25.0034C49.6086 25.8014 50.2435 26.7492 50.6771 27.7927C51.1107 28.8361 51.3345 29.9548 51.3358 31.0847C51.3342 32.2145 51.1102 33.3329 50.6764 34.3761C50.2427 35.4193 49.6077 36.3668 48.8078 37.1646C48.0078 37.9623 47.0586 38.5948 46.0142 39.0257C44.9699 39.4566 43.8509 39.6776 42.7211 39.6761H38.6448C39.9118 37.0791 38.0568 33.8311 34.9581 33.8311H34.6408C35.0551 32.9434 35.1365 31.9363 34.8701 30.9936C34.6037 30.0508 34.0073 29.2353 33.1896 28.6958C32.3719 28.1562 31.3875 27.9286 30.416 28.0545C29.4445 28.1804 28.5506 28.6513 27.8974 29.3814L22.6824 35.1844C22.1359 35.782 21.7819 36.5302 21.6666 37.3318C21.5513 38.1334 21.6801 38.9511 22.0361 39.6784H17.9528C16.8228 39.6799 15.7036 39.4589 14.6591 39.0278C13.6146 38.5967 12.6653 37.9641 11.8653 37.1661C11.0653 36.3681 10.4304 35.4202 9.99676 34.3768C9.56314 33.3334 9.33932 32.2147 9.3381 31.0847C9.33932 29.9548 9.56314 28.8361 9.99676 27.7927C10.4304 26.7492 11.0653 25.8014 11.8653 25.0034C12.6653 24.2054 13.6146 23.5728 14.6591 23.1417C15.7036 22.7106 16.8228 22.4895 17.9528 22.4911H18.1394C18.7531 16.5411 22.9461 11.6877 30.3381 11.6877ZM23.3334 4.66675C27.1064 4.66675 30.4501 6.56841 32.4334 9.47808C31.7381 9.39495 31.0384 9.35365 30.3381 9.35441C23.3521 9.35441 18.2724 13.2674 16.4851 19.1847L16.3264 19.7447L16.1911 20.3001L15.7104 20.3911C13.8708 20.7823 12.1634 21.6419 10.7535 22.8866C9.34355 24.1314 8.27895 25.7191 7.66277 27.4961C6.42229 26.5447 5.50271 25.2364 5.02757 23.7471C4.55242 22.2577 4.54447 20.6586 5.00479 19.1646C5.46511 17.6706 6.37164 16.3533 7.60259 15.3896C8.83355 14.4259 10.33 13.862 11.8908 13.7737L12.4904 13.7597C12.9416 11.2118 14.2756 8.90403 16.2583 7.24133C18.241 5.57862 20.7458 4.66713 23.3334 4.66675Z" fill="white"/>
<path d="M32.6836 32.0177C32.6591 31.5543 32.4516 31.1197 32.1066 30.8093C31.9357 30.6553 31.7362 30.5365 31.5193 30.4597C31.3025 30.383 31.0726 30.3497 30.8429 30.3618C30.6132 30.3739 30.3881 30.4313 30.1805 30.5305C29.973 30.6297 29.787 30.7688 29.6333 30.9399L24.416 36.7453C24.1902 36.9969 24.042 37.3085 23.9895 37.6424C23.937 37.9764 23.9823 38.3184 24.12 38.6272C24.2578 38.9359 24.4819 39.1982 24.7655 39.3822C25.0491 39.5663 25.3799 39.6642 25.718 39.6643H31.325L26.0936 46.2326C25.8197 46.5969 25.6987 47.0536 25.7563 47.5057C25.8139 47.9578 26.0456 48.3696 26.4022 48.6535C26.7587 48.9374 27.2119 49.071 27.6655 49.0259C28.119 48.9808 28.537 48.7605 28.8306 48.4119L36.3253 39.0063C36.531 38.7487 36.6598 38.4381 36.6968 38.1105C36.7338 37.7829 36.6774 37.4515 36.5343 37.1545C36.3912 36.8575 36.167 36.607 35.8877 36.4318C35.6084 36.2566 35.2853 36.1639 34.9556 36.1643H29.645L32.2373 33.2803C32.5476 32.9352 32.7081 32.4811 32.6836 32.0177Z" fill="#EDFF1B"/>
</svg>
