<svg width="24" height="23" viewBox="0 0 24 23" fill="none" xmlns="http://www.w3.org/2000/svg">
<path d="M18.2478 6.69262C18.9791 6.69262 19.5718 6.09984 19.5718 5.36862C19.5718 4.63739 18.9791 4.04462 18.2478 4.04462C17.5166 4.04462 16.9238 4.63739 16.9238 5.36862C16.9238 6.09984 17.5166 6.69262 18.2478 6.69262Z" fill="white"/>
<path fill-rule="evenodd" clip-rule="evenodd" d="M7.01807 11.0333C7.01807 14.0757 9.49229 16.5499 12.5347 16.5499C15.5772 16.5499 18.0514 14.0757 18.0514 11.0333C18.0514 7.99083 15.5772 5.5166 12.5347 5.5166C9.49229 5.5166 7.01807 7.99083 7.01807 11.0333ZM9.77635 11.0332C9.77635 9.512 11.0135 8.27489 12.5347 8.27489C14.0559 8.27489 15.293 9.512 15.293 11.0332C15.293 12.5544 14.0559 13.7916 12.5347 13.7916C11.0135 13.7916 9.77635 12.5544 9.77635 11.0332Z" fill="white"/>
<g filter="url(#filter0_d_2_714)">
<path fill-rule="evenodd" clip-rule="evenodd" d="M7.01813 22.0667H18.0515C20.887 22.0667 23.5681 19.3856 23.5681 16.55V5.51667C23.5681 2.6811 20.887 0 18.0515 0H7.01813C4.18256 0 1.50146 2.6811 1.50146 5.51667V16.55C1.50146 19.3856 4.18256 22.0667 7.01813 22.0667ZM4.25976 5.51642C4.25976 4.2269 5.72857 2.75808 7.01809 2.75808H18.0514C19.3409 2.75808 20.8098 4.2269 20.8098 5.51642V16.5498C20.8098 17.8393 19.3409 19.3081 18.0514 19.3081H7.01809C5.70375 19.3081 4.25976 17.8641 4.25976 16.5498V5.51642Z" fill="white"/>
</g>
<defs>
<filter id="filter0_d_2_714" x="-2.49854" y="0" width="30.0667" height="30.0667" filterUnits="userSpaceOnUse" color-interpolation-filters="sRGB">
<feFlood flood-opacity="0" result="BackgroundImageFix"/>
<feColorMatrix in="SourceAlpha" type="matrix" values="0 0 0 0 0 0 0 0 0 0 0 0 0 0 0 0 0 0 127 0" result="hardAlpha"/>
<feOffset dy="4"/>
<feGaussianBlur stdDeviation="2"/>
<feComposite in2="hardAlpha" operator="out"/>
<feColorMatrix type="matrix" values="0 0 0 0 0 0 0 0 0 0 0 0 0 0 0 0 0 0 0.25 0"/>
<feBlend mode="normal" in2="BackgroundImageFix" result="effect1_dropShadow_2_714"/>
<feBlend mode="normal" in="SourceGraphic" in2="effect1_dropShadow_2_714" result="shape"/>
</filter>
</defs>
</svg>
